<svg width="1002" height="428" viewBox="0 0 1002 428" fill="none" xmlns="http://www.w3.org/2000/svg">
<rect width="1002" height="428" fill="#121B28"/>
<path d="M156.324 260.3C156.292 245.764 156.144 231.101 156.333 216.614C156.575 198.112 166.515 190.287 184.226 190.376C213.063 190.456 241.966 190.555 270.801 190.568C296.449 190.58 297.507 205.692 297.044 226.265C297.373 251.428 304.636 285.797 270.451 286.493C270.553 290.762 271.27 301.623 269.934 305.015C264.136 306.665 245.862 290.191 239.496 286.297C227.174 286.182 214.258 286.054 201.953 286.46C182.541 287.102 156.162 289.04 156.288 261.579C156.291 261.153 156.303 260.726 156.324 260.3Z" fill="#87C241"/>
<path d="M251.413 258.168L251.8 258.039C253.616 257.419 289.863 256.775 294.776 256.684C297.273 253.579 295.968 232.044 297.044 226.265C297.373 251.428 304.636 285.797 270.451 286.492C270.553 290.762 271.27 301.623 269.934 305.014C264.136 306.665 245.862 290.191 239.496 286.297C227.174 286.182 214.258 286.054 201.953 286.46C182.541 287.102 156.162 289.04 156.288 261.579C156.291 261.153 156.303 260.726 156.324 260.3L157.998 264.117C160.915 265.109 166.918 262.233 170.181 261.409C178.353 259.344 185.568 263.48 193.528 260.569L198.533 269.224C209.295 266.421 216.006 264.176 225.501 258.286C234.638 263.834 242.352 266.54 252.491 269.525C254.119 267.051 256.869 263.6 256.912 260.896C255.114 258.689 254.519 259.083 251.413 258.168Z" fill="#8CC749"/>
<path d="M219.255 205.768L230.243 205.436L230.531 216.09C239.202 216.419 248.747 216.297 257.485 216.362L257.504 225.68L247.647 225.808C245.129 235.872 241.008 243.915 233.694 251.277C240.191 254.679 244.074 256.713 251.413 258.168C254.519 259.083 255.114 258.689 256.912 260.896C256.869 263.6 254.119 267.051 252.491 269.525C242.352 266.54 234.638 263.834 225.501 258.286C216.006 264.176 209.295 266.421 198.533 269.224L193.528 260.569C200.249 257.148 205.864 257.563 216.985 251.013C212.263 245.975 208.372 241.088 205.892 234.559C201.453 222.871 203.085 227.122 194.129 225.188C193.134 223.225 193.512 218.75 193.549 216.273L219.202 216.128L219.255 205.768Z" fill="#FEFEFE"/>
<path d="M213.557 225.646L236.934 225.914C234.531 231.807 233.774 233.363 230.497 238.811L225.582 245.123C220.935 239.943 214.891 232.608 213.557 225.646Z" fill="#8CC749"/>
<path d="M113.303 199.26C97.9488 192.477 97.6143 180.44 98.254 165.333C98.782 152.866 97.165 136.586 98.665 124.564C99.0708 121.186 100.02 117.896 101.478 114.823C105.357 106.7 112.74 104.434 121.402 104.154C149.226 103.255 177.195 104.314 205.031 103.822C215.625 103.635 233.724 104.947 235.95 118.853C238.89 137.216 237.029 159.061 237.213 178.056L197.476 177.959C179.297 177.854 160.739 174.997 150.891 192.075C149.851 193.878 147.401 197.859 146.033 199.161C140.132 203.036 135.017 207.961 129.533 212.373C126.732 214.626 123.678 218.064 120.264 215.783C118.893 212.269 120.118 206.217 119.272 201.295C117.782 199.499 116.157 199.788 113.303 199.26Z" fill="#1569D4"/>
<path d="M113.303 199.26C120.296 199.191 140.338 198.363 146.033 199.161C140.132 203.036 135.017 207.961 129.533 212.373C126.732 214.626 123.678 218.064 120.263 215.783C118.893 212.269 120.118 206.217 119.272 201.295C117.782 199.499 116.157 199.788 113.303 199.26Z" fill="#042B76"/>
<path d="M161.23 121.449L172.184 121.295C180.397 137.444 190.154 160.752 197.507 177.618L184.966 177.735L179.697 166.66L172.938 166.71L153.942 166.62C152.781 169.998 150.228 175.348 148.722 178.766L136.088 178.262C144.699 159.48 152.598 140.354 161.23 121.449Z" fill="#FEFEFE"/>
<path d="M166.376 135.898C168.125 137.635 174.547 153.337 175.992 156.749L167.447 156.992L157.685 156.922C160.641 149.939 163.538 142.931 166.376 135.898Z" fill="#0E69C8"/>
<path d="M64.7717 207.801L79.5002 207.918L79.6382 234.302C79.6532 238.901 79.552 244.025 79.714 248.574C79.2287 296.955 113.376 288.504 148.868 289.309C148.902 294.201 148.765 299.405 148.711 304.321L120.927 303.733L120.741 347.909C139.162 361.088 129.347 383.241 111.665 381.634C106.732 381.185 102.187 378.766 99.0587 374.923C90.5447 364.392 96.6287 354.557 105.741 347.476C105.976 332.983 106.052 318.488 105.971 303.994C95.1467 301.896 86.1377 298.547 78.2177 290.605C62.9747 275.321 64.6255 258.081 64.666 238.541L64.7717 207.801Z" fill="#FEFEFE"/>
<path d="M741.475 137.022C753.933 136.07 762.018 137.255 773.253 142.59L770.08 159.689C764.62 157.357 735.625 147.574 735.948 165.381C736.075 172.913 756.745 180.741 763.983 186.113C778.398 196.806 779.815 214.928 770.08 229.647C765.482 236.479 754.982 239.208 746.687 240.062C735.805 240.894 725.68 238.701 716.012 233.758C717.002 227.96 717.715 222.252 718.472 216.425C725.057 219.2 758.297 230.872 756.43 209.54C755.777 202.086 739.172 195.345 732.58 191.516C716.597 182.229 711.565 165.065 721.09 148.849C725.582 141.223 732.963 138.858 741.475 137.022Z" fill="#8CC749"/>
<path fill-rule="evenodd" clip-rule="evenodd" d="M853.3 167.881C860.493 167.807 867.115 168.907 873.055 173.536C887.53 184.824 887.357 217.361 876.572 230.933C871.495 237.325 864.355 239.331 856.473 239.972C838.713 240.896 827.455 229.91 826.172 212.473C824.53 190.2 827.493 170.291 853.3 167.881ZM852.872 183.501C844.27 187.499 844.09 195.636 844.143 204.19C844.195 214.862 844.412 223.612 856.645 224.645C864.775 221.267 865.323 213.808 865.54 205.697C865.795 195.993 865.87 183.32 852.872 183.501Z" fill="#8CC749"/>
<path d="M136.859 10.9233C160.312 10.4101 185.466 10.7072 209.006 10.8512C209.664 18.2473 209.178 33.9981 209.154 42.2261C199.682 42.512 189.248 42.2989 179.704 42.3004L179.804 60.1473C179.841 70.7466 179.798 81.3459 179.678 91.9445L164.484 91.9115L164.462 42.3214C155.106 42.3514 145.751 42.3282 136.397 42.2509C136.437 32.1895 136.244 20.8707 136.859 10.9233Z" fill="#FEFEFE"/>
<path fill-rule="evenodd" clip-rule="evenodd" d="M476.949 167.905C511.84 163.973 509.41 191.168 508.802 216.004C508.615 223.314 508.81 231.095 508.84 238.445C505.179 238.532 495.141 239.219 492.744 237.733C492.568 235.945 492.656 234.179 491.493 232.923C481.555 234.93 483.539 246.056 463.447 237.603C458.158 233.501 455.114 229.628 454.493 223.095C452.226 199.252 468.126 196.928 487.423 197.171C489.062 197.191 489.87 196.351 490.693 195.209C492.395 178.269 470.355 183.959 460.719 186.563L459.889 171.171C466.195 169.198 470.555 168.563 476.949 167.905ZM490.69 208.881C486.581 208.713 481.313 208.284 477.362 208.971C468.154 217.773 473.191 229.719 485.831 225.234C492.515 220.257 490.995 216.65 490.69 208.881Z" fill="#FEFEFE"/>
<path fill-rule="evenodd" clip-rule="evenodd" d="M962.62 167.847C990.46 167.016 992.275 188.404 991.712 210.352C985.599 210.29 959.636 209.548 955.12 210.894C954.288 213.215 955.045 215.548 955.795 217.846C959.95 230.638 983.005 220.378 987.872 222.527L988.285 224.811L988.712 236.522C966.37 243.444 939.82 242.049 936.4 213.952C933.73 192.048 937.81 171.011 962.62 167.847ZM975.228 197.971C974.403 188.341 974.462 182.248 962.44 182.706C954.677 186.172 954.722 190.117 954.332 198.093L966.362 198.122L975.228 197.971Z" fill="#8CC749"/>
<path d="M349.754 137.706L417.288 137.862L417.224 156.219L393.084 156.222L393.158 213.935L393.166 238.505C386.766 238.708 380.18 238.541 373.766 238.469L373.727 156.329L349.55 156.297C349.538 150.099 349.606 143.902 349.754 137.706Z" fill="#FEFEFE"/>
<path d="M555.093 167.79L555.872 167.783C573.227 167.711 577.233 180.515 577.113 195.58C576.993 209.8 577.008 224.136 577.03 238.361L558.332 238.38C558.22 227.998 561.205 193.773 555.625 186.722C554.417 185.191 552.73 184.152 550.765 183.989C546.61 183.645 542.927 186.213 539.935 188.749C538.81 191.585 539.53 232.663 539.552 238.519C533.155 238.626 527.245 238.44 520.855 238.217C520.945 215.203 520.907 192.187 520.735 169.172L537.31 169.129C537.692 171.333 537.685 172.931 539.155 174.522C542.313 174.377 545.343 169.676 555.093 167.79Z" fill="#FEFEFE"/>
<path d="M164.482 298.831L179.626 298.854C180.521 325.554 179.732 356.617 179.611 383.621C192.897 393.913 194.31 407.622 178.373 416.342C157.771 422.178 143.069 398.512 164.463 383.289L164.482 298.831Z" fill="#FEFEFE"/>
<path d="M608.35 167.857C618.348 167.327 623.56 168.107 632.657 172.087C631.825 176.148 631.247 182.278 630.715 186.531C625.81 184.647 604.24 177.949 605.155 188.835C608.425 194.028 620.395 197.306 626.365 201.618C636.64 209.038 638.155 221.521 630.917 231.857C626.965 237.507 618.302 239.256 611.56 239.903C601.832 240.382 595.337 238.874 586.337 235.935C587.402 231.36 587.957 225.562 588.542 220.815C595.15 223.252 609.573 227.553 615.933 222.806C617.335 220.054 617.117 221.242 616.937 218.299C613.427 211.338 600.88 209.765 595.308 204.818C578.275 189.699 586.735 170.826 608.35 167.857Z" fill="#FEFEFE"/>
<path d="M792.782 150.689C796.997 150.516 801.602 150.695 805.847 150.773L805.87 169.195L820.532 169.382L820.608 184.249L805.765 184.243C805.787 193.242 804.107 216.059 808.015 222.687C811.48 225.323 816.213 224.137 820.698 223.686L820.577 238.263C778.15 246.133 787.72 215.034 787.442 184.43L778.052 184.118L777.948 169.32L787.503 169.145C787.593 163.271 786.483 157.899 787.975 152.455C789.813 150.468 789.295 151.103 792.782 150.689Z" fill="#8CC749"/>
<path d="M111.834 58.4413C124.978 58.4166 138.122 58.5231 151.263 58.7624L151.283 73.4893C113.201 73.7331 76.4058 65.4698 79.4425 116.773C79.579 119.075 79.4905 121.981 79.519 124.33L79.4305 148.244C74.5975 148.453 69.5005 148.34 64.6435 148.314C64.4665 136.616 63.8613 102.891 66.2283 93.2881C68.0898 85.661 71.8525 78.6295 77.1655 72.8493C86.6815 62.6469 98.332 58.9987 111.834 58.4413Z" fill="#FEFEFE"/>
<path d="M31.7418 155.01C44.1085 154.3 52.5513 160.778 57.1503 171.819C66.6588 171.796 76.1665 171.862 85.6735 172.02L85.702 185.612L57.088 185.645L54.2455 191.183C50.7318 196.037 46.225 199.762 40.3555 201.411C34.1118 203.111 27.445 202.176 21.9093 198.825C16.2918 195.48 12.2658 190.005 10.7463 183.645C7.11851 168.249 17.434 158.015 31.7418 155.01Z" fill="#FEFEFE"/>
<path d="M193.757 58.7984C224.006 58.013 265.727 52.4158 277.906 88.8057C281.926 100.816 280.973 120.238 280.322 133.234C275.88 134.442 270.597 134.048 265.988 133.872C264.773 117.025 270.438 96.2603 257.181 82.9791C253.174 79.0106 248.174 76.1922 242.705 74.8193C234.766 72.7683 203.926 73.505 193.735 73.454L193.757 58.7984Z" fill="#FEFEFE"/>
<path d="M223.219 298.835L238.377 298.792C238.127 314.546 238.296 332.133 238.635 347.833C251.925 358.299 252.885 372.014 237.201 380.831C224.054 383.77 212.576 377.373 213.341 362.909C213.721 355.719 218.184 351.676 223.243 347.416C223.482 331.436 223.206 314.891 223.219 298.835Z" fill="#FEFEFE"/>
<path d="M446.111 167.73C447.146 167.799 448.526 168.024 449.587 168.162C452.689 171.75 451.249 180.577 451.127 186.086C441.358 186.315 438.18 187.367 432.154 195.421L432.077 238.354C428.183 238.405 417.235 238.835 414.011 237.899L413.503 236.703L413.48 169.174L429.884 169.162L431.075 178.165C436.106 171.746 438.335 169.753 446.111 167.73Z" fill="#FEFEFE"/>
<path d="M923.56 168.456C927.415 167.982 929.02 167.175 931.78 170.078C933.025 173.527 932.035 181.783 931.892 186.243C921.79 186.224 918.258 187.758 912.783 196.177L912.438 238.304L894.205 238.343L894.175 169.18L910.563 169.162C911.095 171.977 911.493 175.536 911.89 178.423C916.083 172.97 917.447 171.539 923.56 168.456Z" fill="#8CC749"/>
<path d="M645.378 169.151L663.782 169.141L663.685 238.544L645.385 238.533C645.115 215.636 645.385 192.1 645.378 169.151Z" fill="#FEFEFE"/>
<path d="M110.292 234.333C109.936 224.446 108.503 216.033 121.389 225.146C128.262 230.007 137.165 234.775 143.111 240.561C143.457 241.808 143.993 242.517 143.255 243.293C136.728 250.166 122.875 258.492 114.212 262.593C113.131 263.106 112.239 262.018 111.471 261.413C109.719 257.893 110.295 252.494 110.396 248.448C110.522 243.819 110.367 238.978 110.292 234.333Z" fill="#8CC749"/>
<path d="M295.745 161.428C314.331 168.318 328.091 198.036 324.111 217.189C322.404 219.422 323.322 218.812 320.687 219.542L310.977 219.199C311.243 196.646 310.371 186.027 290.263 172.917C292.189 168.085 293.111 165.856 295.745 161.428Z" fill="#8CC749"/>
<path d="M278.66 144.236C294.955 144.307 284.69 164.191 278.604 170.28C273.128 175.76 268.439 169.279 264.666 165.342C259.487 160.468 247.981 152.801 255.893 145.475C261.036 144.111 266.563 147.548 271.061 150.063C274.1 147.278 275.147 146.304 278.66 144.236Z" fill="#FEFEFE"/>
<path d="M675.295 192.456L707.942 192.505L707.567 208.26L675.242 208.181L675.295 192.456Z" fill="#FEFEFE"/>
<path d="M79.6383 234.302L110.292 234.333C110.367 238.978 110.522 243.819 110.396 248.448L79.714 248.574C79.552 244.025 79.6533 238.901 79.6383 234.302Z" fill="#43AECE"/>
<path d="M651.955 136.369C657.76 134.965 663.625 138.454 665.162 144.226C666.692 149.999 663.34 155.942 657.61 157.61C653.777 158.724 649.652 157.678 646.81 154.875C643.975 152.072 642.88 147.953 643.952 144.111C645.017 140.268 648.077 137.306 651.955 136.369Z" fill="#FEFEFE"/>
</svg>
