<svg width="982" height="408" viewBox="0 0 982 408" fill="none" xmlns="http://www.w3.org/2000/svg">
<g clip-path="url(#clip0_5_2)">
<rect width="982" height="408" fill="none"/>
<path d="M146.324 250.3C146.292 235.764 146.144 221.101 146.333 206.614C146.575 188.112 156.515 180.287 174.226 180.376C203.063 180.456 231.966 180.555 260.801 180.568C286.449 180.58 287.507 195.692 287.044 216.265C287.373 241.428 294.636 275.797 260.451 276.493C260.553 280.762 261.27 291.623 259.934 295.015C254.136 296.665 235.862 280.191 229.496 276.297C217.174 276.182 204.258 276.054 191.953 276.46C172.541 277.102 146.162 279.04 146.288 251.579C146.291 251.153 146.303 250.726 146.324 250.3Z" fill="#87C241"/>
<path d="M241.413 248.168L241.8 248.039C243.616 247.419 279.862 246.775 284.776 246.684C287.272 243.579 285.968 222.044 287.044 216.265C287.373 241.428 294.636 275.797 260.451 276.492C260.553 280.762 261.27 291.623 259.934 295.014C254.136 296.665 235.862 280.191 229.496 276.297C217.174 276.182 204.258 276.054 191.953 276.46C172.541 277.102 146.162 279.04 146.288 251.579C146.291 251.153 146.303 250.726 146.324 250.3L147.998 254.117C150.915 255.109 156.918 252.233 160.181 251.409C168.353 249.344 175.567 253.48 183.528 250.569L188.533 259.224C199.295 256.421 206.006 254.176 215.5 248.286C224.638 253.834 232.351 256.54 242.491 259.525C244.119 257.051 246.869 253.6 246.912 250.896C245.114 248.689 244.519 249.083 241.413 248.168Z" fill="#8CC749"/>
<path d="M209.255 195.768L220.243 195.436L220.531 206.09C229.202 206.419 238.747 206.297 247.485 206.362L247.504 215.68L237.647 215.808C235.129 225.872 231.008 233.915 223.694 241.277C230.191 244.679 234.074 246.713 241.413 248.168C244.519 249.083 245.114 248.689 246.912 250.896C246.869 253.6 244.119 257.051 242.491 259.525C232.352 256.54 224.638 253.834 215.501 248.286C206.006 254.176 199.295 256.421 188.533 259.224L183.528 250.569C190.249 247.148 195.864 247.563 206.985 241.013C202.263 235.975 198.372 231.088 195.892 224.559C191.453 212.871 193.085 217.122 184.129 215.188C183.134 213.225 183.512 208.75 183.549 206.273L209.202 206.128L209.255 195.768Z" fill="#FEFEFE"/>
<path d="M203.557 215.646L226.934 215.914C224.531 221.807 223.774 223.363 220.497 228.811L215.582 235.123C210.935 229.943 204.891 222.608 203.557 215.646Z" fill="#8CC749"/>
<path d="M103.303 189.26C87.9488 182.477 87.6143 170.44 88.254 155.333C88.782 142.866 87.165 126.586 88.665 114.564C89.0708 111.186 90.0203 107.896 91.4783 104.823C95.3573 96.6999 102.74 94.4336 111.402 94.1537C139.226 93.255 167.195 94.3135 195.031 93.8221C205.625 93.6354 223.724 94.9474 225.95 108.853C228.89 127.216 227.029 149.061 227.213 168.056L187.476 167.959C169.297 167.854 150.739 164.997 140.891 182.075C139.851 183.878 137.401 187.859 136.033 189.161C130.132 193.036 125.017 197.961 119.533 202.373C116.732 204.626 113.678 208.064 110.264 205.783C108.893 202.269 110.118 196.217 109.272 191.295C107.782 189.499 106.157 189.788 103.303 189.26Z" fill="#1569D4"/>
<path d="M103.303 189.26C110.296 189.191 130.338 188.363 136.033 189.161C130.132 193.036 125.017 197.961 119.533 202.373C116.732 204.626 113.678 208.064 110.263 205.783C108.893 202.269 110.118 196.217 109.272 191.295C107.782 189.499 106.157 189.788 103.303 189.26Z" fill="#042B76"/>
<path d="M151.23 111.449L162.184 111.295C170.397 127.444 180.154 150.752 187.507 167.618L174.966 167.735L169.697 156.66L162.938 156.71L143.942 156.62C142.781 159.998 140.228 165.348 138.722 168.766L126.088 168.262C134.699 149.48 142.598 130.354 151.23 111.449Z" fill="#FEFEFE"/>
<path d="M156.376 125.898C158.125 127.635 164.547 143.337 165.992 146.749L157.447 146.992L147.685 146.922C150.641 139.939 153.538 132.931 156.376 125.898Z" fill="#0E69C8"/>
<path d="M54.7717 197.801L69.5002 197.918L69.6382 224.302C69.6532 228.901 69.552 234.025 69.714 238.574C69.2287 286.955 103.376 278.504 138.868 279.309C138.902 284.201 138.765 289.405 138.711 294.321L110.927 293.733L110.741 337.909C129.162 351.088 119.347 373.241 101.665 371.634C96.732 371.185 92.187 368.766 89.0587 364.923C80.5447 354.392 86.6287 344.557 95.7412 337.476C95.976 322.983 96.0525 308.488 95.9707 293.994C85.1467 291.896 76.1377 288.547 68.2177 280.605C52.9747 265.321 54.6255 248.081 54.666 228.541L54.7717 197.801Z" fill="#121B28"/>
<path d="M731.475 127.022C743.933 126.07 752.018 127.255 763.253 132.59L760.08 149.689C754.62 147.357 725.625 137.574 725.948 155.381C726.075 162.913 746.745 170.741 753.983 176.113C768.398 186.806 769.815 204.928 760.08 219.647C755.482 226.479 744.982 229.208 736.687 230.062C725.805 230.894 715.68 228.701 706.012 223.758C707.002 217.96 707.715 212.252 708.472 206.425C715.057 209.2 748.297 220.872 746.43 199.54C745.777 192.086 729.172 185.345 722.58 181.516C706.597 172.229 701.565 155.065 711.09 138.849C715.582 131.223 722.963 128.858 731.475 127.022Z" fill="#8CC749"/>
<path d="M843.3 157.881C850.493 157.808 857.115 158.906 863.055 163.536C877.53 174.824 877.357 207.361 866.573 220.932C861.495 227.325 854.354 229.332 846.472 229.972C828.712 230.896 817.455 219.909 816.172 202.472C814.53 180.2 817.493 160.291 843.3 157.881ZM842.872 173.502C834.27 177.5 834.089 185.636 834.142 194.19C834.194 204.863 834.412 213.611 846.645 214.644C854.775 211.267 855.323 203.808 855.54 195.697C855.795 185.993 855.87 173.321 842.872 173.502Z" fill="#8CC749"/>
<path d="M126.859 0.923253C150.312 0.410128 175.466 0.707194 199.006 0.851229C199.664 8.24728 199.178 23.9981 199.154 32.2261C189.682 32.512 179.248 32.2989 169.704 32.3004L169.804 50.1473C169.841 60.7466 169.798 71.3459 169.678 81.9445L154.484 81.9115L154.462 32.3214C145.106 32.3514 135.751 32.3282 126.397 32.2509C126.437 22.1895 126.244 10.8707 126.859 0.923253Z" fill="#121B28"/>
<path d="M466.949 157.905C501.84 153.973 499.41 181.169 498.802 206.004C498.615 213.314 498.81 221.095 498.84 228.444C495.18 228.531 485.14 229.219 482.744 227.733C482.568 225.945 482.656 224.179 481.493 222.923C471.555 224.93 473.539 236.056 453.447 227.603C448.158 223.501 445.114 219.627 444.493 213.095C442.226 189.252 458.126 186.927 477.422 187.17C479.062 187.191 479.87 186.351 480.693 185.209C482.395 168.269 460.355 173.959 450.719 176.563L449.889 161.171C456.195 159.199 460.554 158.563 466.949 157.905ZM480.69 198.88C476.581 198.713 471.312 198.285 467.361 198.972C458.153 207.774 463.191 219.719 475.831 215.234C482.515 210.257 480.995 206.65 480.69 198.88Z" fill="#121B28"/>
<path d="M952.62 157.847C980.46 157.016 982.275 178.404 981.712 200.352C975.599 200.29 949.636 199.548 945.12 200.894C944.288 203.215 945.045 205.548 945.795 207.846C949.95 220.638 973.005 210.378 977.872 212.527L978.285 214.811L978.712 226.522C956.37 233.444 929.82 232.049 926.4 203.952C923.73 182.048 927.81 161.011 952.62 157.847ZM965.228 187.971C964.403 178.341 964.462 172.248 952.44 172.706C944.677 176.172 944.722 180.117 944.332 188.093L956.362 188.122L965.228 187.971Z" fill="#8CC749"/>
<path d="M339.754 127.706L407.288 127.862L407.224 146.219L383.084 146.222L383.158 203.935L383.166 228.505C376.766 228.708 370.18 228.541 363.766 228.469L363.727 146.329L339.55 146.297C339.538 140.099 339.606 133.902 339.754 127.706Z" fill="#121B28"/>
<path d="M545.093 157.79L545.872 157.783C563.227 157.711 567.233 170.515 567.113 185.58C566.993 199.8 567.008 214.136 567.03 228.361L548.332 228.38C548.22 217.998 551.205 183.773 545.625 176.722C544.417 175.192 542.73 174.152 540.765 173.989C536.61 173.645 532.927 176.213 529.935 178.749C528.81 181.585 529.53 222.663 529.552 228.519C523.155 228.626 517.245 228.44 510.855 228.217C510.945 205.203 510.907 182.187 510.735 159.172L527.31 159.129C527.692 161.333 527.685 162.931 529.155 164.522C532.313 164.377 535.343 159.676 545.093 157.79Z" fill="#121B28"/>
<path d="M154.482 288.831L169.626 288.854C170.521 315.554 169.732 346.617 169.611 373.621C182.897 383.913 184.31 397.622 168.373 406.342C147.771 412.178 133.069 388.512 154.463 373.289L154.482 288.831Z" fill="#121B28"/>
<path d="M598.35 157.857C608.348 157.327 613.56 158.107 622.657 162.087C621.825 166.148 621.247 172.278 620.715 176.531C615.81 174.647 594.24 167.949 595.155 178.835C598.425 184.028 610.395 187.306 616.365 191.618C626.64 199.038 628.155 211.521 620.917 221.857C616.965 227.507 608.302 229.256 601.56 229.903C591.832 230.382 585.337 228.874 576.337 225.935C577.402 221.36 577.957 215.562 578.542 210.815C585.15 213.252 599.573 217.553 605.933 212.806C607.335 210.054 607.117 211.242 606.937 208.299C603.427 201.338 590.88 199.765 585.308 194.818C568.275 179.699 576.735 160.826 598.35 157.857Z" fill="#121B28"/>
<path d="M782.782 140.689C786.997 140.516 791.602 140.695 795.847 140.773L795.87 159.195L810.532 159.382L810.608 174.249L795.765 174.243C795.787 183.242 794.107 206.059 798.015 212.687C801.48 215.323 806.213 214.137 810.698 213.686L810.577 228.263C768.15 236.133 777.72 205.034 777.442 174.43L768.052 174.118L767.948 159.32L777.503 159.145C777.593 153.271 776.483 147.899 777.975 142.455C779.813 140.468 779.295 141.103 782.782 140.689Z" fill="#8CC749"/>
<path d="M101.834 48.4413C114.978 48.4166 128.122 48.5231 141.263 48.7624L141.283 63.4893C103.201 63.7331 66.4058 55.4698 69.4425 106.773C69.579 109.075 69.4905 111.981 69.519 114.33L69.4305 138.244C64.5975 138.453 59.5005 138.34 54.6435 138.314C54.4665 126.616 53.8613 92.8912 56.2283 83.2881C58.0898 75.661 61.8525 68.6295 67.1655 62.8493C76.6815 52.6469 88.332 48.9987 101.834 48.4413Z" fill="#121B28"/>
<path d="M21.7418 145.01C34.1085 144.3 42.5513 150.778 47.1503 161.819C56.6588 161.796 66.1665 161.862 75.6735 162.02L75.702 175.612L47.088 175.645L44.2455 181.183C40.7318 186.037 36.225 189.762 30.3555 191.411C24.1118 193.111 17.445 192.176 11.9093 188.825C6.29176 185.48 2.26576 180.005 0.746262 173.645C-2.88149 158.249 7.43403 148.015 21.7418 145.01Z" fill="#121B28"/>
<path d="M183.757 48.7984C214.006 48.013 255.727 42.4158 267.906 78.8057C271.926 90.8162 270.973 110.238 270.322 123.234C265.88 124.442 260.597 124.048 255.988 123.872C254.773 107.025 260.438 86.2603 247.181 72.9791C243.174 69.0106 238.174 66.1922 232.705 64.8193C224.766 62.7683 193.926 63.505 183.735 63.454L183.757 48.7984Z" fill="#121B28"/>
<path d="M213.219 288.835L228.377 288.792C228.127 304.546 228.296 322.133 228.635 337.833C241.925 348.299 242.885 362.014 227.201 370.831C214.054 373.77 202.576 367.373 203.341 352.909C203.721 345.719 208.184 341.676 213.243 337.416C213.482 321.436 213.206 304.891 213.219 288.835Z" fill="#121B28"/>
<path d="M436.111 157.73C437.146 157.799 438.526 158.024 439.587 158.162C442.689 161.75 441.249 170.577 441.127 176.086C431.358 176.315 428.18 177.367 422.154 185.421L422.077 228.354C418.183 228.405 407.235 228.835 404.011 227.899L403.503 226.703L403.48 159.174L419.884 159.162L421.075 168.165C426.106 161.746 428.335 159.753 436.111 157.73Z" fill="#121B28"/>
<path d="M913.56 158.456C917.415 157.982 919.02 157.175 921.78 160.078C923.025 163.527 922.035 171.783 921.892 176.243C911.79 176.224 908.258 177.758 902.783 186.177L902.438 228.304L884.205 228.343L884.175 159.18L900.563 159.162C901.095 161.977 901.493 165.536 901.89 168.423C906.083 162.97 907.447 161.539 913.56 158.456Z" fill="#8CC749"/>
<path d="M635.378 159.151L653.782 159.141L653.685 228.544L635.385 228.533C635.115 205.636 635.385 182.1 635.378 159.151Z" fill="#121B28"/>
<path d="M100.292 224.333C99.936 214.446 98.5035 206.033 111.389 215.146C118.262 220.007 127.165 224.775 133.111 230.561C133.457 231.808 133.993 232.517 133.255 233.293C126.728 240.166 112.875 248.492 104.213 252.593C103.131 253.106 102.239 252.018 101.471 251.413C99.7193 247.893 100.295 242.494 100.397 238.448C100.522 233.819 100.367 228.978 100.292 224.333Z" fill="#8CC749"/>
<path d="M285.745 151.428C304.331 158.318 318.091 188.036 314.111 207.189C312.404 209.422 313.322 208.812 310.687 209.542L300.977 209.199C301.243 186.646 300.371 176.027 280.263 162.917C282.189 158.085 283.111 155.856 285.745 151.428Z" fill="#8CC749"/>
<path d="M268.66 134.236C284.955 134.307 274.69 154.191 268.604 160.28C263.128 165.76 258.439 159.279 254.666 155.342C249.487 150.468 237.981 142.801 245.893 135.475C251.036 134.111 256.563 137.548 261.061 140.063C264.1 137.278 265.147 136.304 268.66 134.236Z" fill="#121B28"/>
<path d="M665.295 182.456L697.942 182.505L697.567 198.26L665.242 198.181L665.295 182.456Z" fill="#121B28"/>
<path d="M69.6383 224.302L100.292 224.333C100.367 228.978 100.522 233.819 100.396 238.448L69.714 238.574C69.552 234.025 69.6533 228.901 69.6383 224.302Z" fill="#43AECE"/>
<path d="M641.955 126.369C647.76 124.965 653.625 128.454 655.162 134.226C656.692 139.999 653.34 145.942 647.61 147.61C643.777 148.724 639.652 147.678 636.81 144.875C633.975 142.072 632.88 137.953 633.952 134.111C635.017 130.268 638.077 127.306 641.955 126.369Z" fill="#121B28"/>
</g>
<defs>
<clipPath id="clip0_5_2">
<rect width="982" height="408" fill="none"/>
</clipPath>
</defs>
</svg>
