<svg width="315" height="408" viewBox="0 0 315 408" fill="none" xmlns="http://www.w3.org/2000/svg">
<g clip-path="url(#clip0_5_43)">
<rect width="315" height="408" fill="none"/>
<path d="M146.324 250.3C146.292 235.764 146.144 221.101 146.333 206.614C146.575 188.112 156.515 180.287 174.226 180.376C203.063 180.456 231.966 180.555 260.801 180.568C286.449 180.58 287.507 195.692 287.044 216.265C287.373 241.428 294.636 275.797 260.451 276.493C260.553 280.762 261.27 291.623 259.934 295.015C254.136 296.665 235.862 280.191 229.496 276.297C217.174 276.182 204.258 276.054 191.953 276.46C172.541 277.102 146.162 279.04 146.288 251.579C146.291 251.153 146.303 250.726 146.324 250.3Z" fill="#87C241"/>
<path d="M241.413 248.168L241.8 248.039C243.616 247.419 279.862 246.775 284.776 246.684C287.272 243.579 285.968 222.044 287.044 216.265C287.373 241.428 294.636 275.797 260.451 276.492C260.553 280.762 261.27 291.623 259.934 295.014C254.136 296.665 235.862 280.191 229.496 276.297C217.174 276.182 204.258 276.054 191.953 276.46C172.541 277.102 146.162 279.04 146.288 251.579C146.291 251.153 146.303 250.726 146.324 250.3L147.998 254.117C150.915 255.109 156.918 252.233 160.181 251.409C168.353 249.344 175.567 253.48 183.528 250.569L188.533 259.224C199.295 256.421 206.006 254.176 215.5 248.286C224.638 253.834 232.351 256.54 242.491 259.525C244.119 257.051 246.869 253.6 246.912 250.896C245.114 248.689 244.519 249.083 241.413 248.168Z" fill="#8CC749"/>
<path d="M209.255 195.768L220.243 195.436L220.531 206.09C229.202 206.419 238.747 206.297 247.485 206.362L247.504 215.68L237.647 215.808C235.129 225.872 231.008 233.915 223.694 241.277C230.191 244.679 234.074 246.713 241.413 248.168C244.519 249.083 245.114 248.689 246.912 250.896C246.869 253.6 244.119 257.051 242.491 259.525C232.352 256.54 224.638 253.834 215.501 248.286C206.006 254.176 199.295 256.421 188.533 259.224L183.528 250.569C190.249 247.148 195.864 247.563 206.985 241.013C202.263 235.975 198.372 231.088 195.892 224.559C191.453 212.871 193.085 217.122 184.129 215.188C183.134 213.225 183.512 208.75 183.549 206.273L209.202 206.128L209.255 195.768Z" fill="#FEFEFE"/>
<path d="M203.557 215.646L226.934 215.914C224.531 221.807 223.774 223.363 220.497 228.811L215.582 235.123C210.935 229.943 204.891 222.608 203.557 215.646Z" fill="#8CC749"/>
<path d="M103.303 189.26C87.9488 182.477 87.6143 170.44 88.254 155.333C88.782 142.866 87.165 126.586 88.665 114.564C89.0708 111.186 90.0203 107.896 91.4783 104.823C95.3573 96.6999 102.74 94.4336 111.402 94.1537C139.226 93.255 167.195 94.3135 195.031 93.8221C205.625 93.6354 223.724 94.9474 225.95 108.853C228.89 127.216 227.029 149.061 227.213 168.056L187.476 167.959C169.297 167.854 150.739 164.997 140.891 182.075C139.851 183.878 137.401 187.859 136.033 189.161C130.132 193.036 125.017 197.961 119.533 202.373C116.732 204.626 113.678 208.064 110.264 205.783C108.893 202.269 110.118 196.217 109.272 191.295C107.782 189.499 106.157 189.788 103.303 189.26Z" fill="#1569D4"/>
<path d="M103.303 189.26C110.296 189.191 130.338 188.363 136.033 189.161C130.132 193.036 125.017 197.961 119.533 202.373C116.732 204.626 113.678 208.064 110.263 205.783C108.893 202.269 110.118 196.217 109.272 191.295C107.782 189.499 106.157 189.788 103.303 189.26Z" fill="#042B76"/>
<path d="M151.23 111.449L162.184 111.295C170.397 127.444 180.154 150.752 187.507 167.618L174.966 167.735L169.697 156.66L162.938 156.71L143.942 156.62C142.781 159.998 140.228 165.348 138.722 168.766L126.088 168.262C134.699 149.48 142.598 130.354 151.23 111.449Z" fill="#FEFEFE"/>
<path d="M156.376 125.898C158.125 127.635 164.547 143.337 165.992 146.749L157.447 146.992L147.685 146.922C150.641 139.939 153.538 132.931 156.376 125.898Z" fill="#0E69C8"/>
<path d="M54.7717 197.801L69.5002 197.918L69.6382 224.302C69.6532 228.901 69.552 234.025 69.714 238.574C69.2287 286.955 103.376 278.504 138.868 279.309C138.902 284.201 138.765 289.405 138.711 294.321L110.927 293.733L110.741 337.909C129.162 351.088 119.347 373.241 101.665 371.634C96.732 371.185 92.187 368.766 89.0587 364.923C80.5447 354.392 86.6287 344.557 95.7412 337.476C95.976 322.983 96.0525 308.488 95.9707 293.994C85.1467 291.896 76.1377 288.547 68.2177 280.605C52.9747 265.321 54.6255 248.081 54.666 228.541L54.7717 197.801Z" fill="#121B28"/>
<path d="M126.859 0.923253C150.312 0.410128 175.466 0.707194 199.006 0.851229C199.664 8.24728 199.178 23.9981 199.154 32.2261C189.682 32.512 179.248 32.2989 169.704 32.3004L169.804 50.1473C169.841 60.7466 169.798 71.3459 169.678 81.9445L154.484 81.9115L154.462 32.3214C145.106 32.3514 135.751 32.3282 126.397 32.2509C126.437 22.1895 126.244 10.8707 126.859 0.923253Z" fill="#121B28"/>
<path d="M154.482 288.831L169.626 288.854C170.521 315.554 169.732 346.617 169.611 373.621C182.897 383.913 184.31 397.622 168.373 406.342C147.771 412.178 133.069 388.512 154.463 373.289L154.482 288.831Z" fill="#121B28"/>
<path d="M101.834 48.4413C114.978 48.4166 128.122 48.5231 141.263 48.7624L141.283 63.4893C103.201 63.7331 66.4058 55.4698 69.4425 106.773C69.579 109.075 69.4905 111.981 69.519 114.33L69.4305 138.244C64.5975 138.453 59.5005 138.34 54.6435 138.314C54.4665 126.616 53.8613 92.8912 56.2283 83.2881C58.0898 75.661 61.8525 68.6295 67.1655 62.8493C76.6815 52.6469 88.332 48.9987 101.834 48.4413Z" fill="#121B28"/>
<path d="M21.7418 145.01C34.1085 144.3 42.5513 150.778 47.1503 161.819C56.6588 161.796 66.1665 161.862 75.6735 162.02L75.702 175.612L47.088 175.645L44.2455 181.183C40.7318 186.037 36.225 189.762 30.3555 191.411C24.1118 193.111 17.445 192.176 11.9093 188.825C6.29176 185.48 2.26576 180.005 0.746262 173.645C-2.88149 158.249 7.43403 148.015 21.7418 145.01Z" fill="#121B28"/>
<path d="M183.757 48.7984C214.006 48.013 255.727 42.4158 267.906 78.8057C271.926 90.8162 270.973 110.238 270.322 123.234C265.88 124.442 260.597 124.048 255.988 123.872C254.773 107.025 260.438 86.2603 247.181 72.9791C243.174 69.0106 238.174 66.1922 232.705 64.8193C224.766 62.7683 193.926 63.505 183.735 63.454L183.757 48.7984Z" fill="#121B28"/>
<path d="M213.219 288.835L228.377 288.792C228.127 304.546 228.296 322.133 228.635 337.833C241.925 348.299 242.885 362.014 227.201 370.831C214.054 373.77 202.576 367.373 203.341 352.909C203.721 345.719 208.184 341.676 213.243 337.416C213.482 321.436 213.206 304.891 213.219 288.835Z" fill="#121B28"/>
<path d="M100.292 224.333C99.936 214.446 98.5035 206.033 111.389 215.146C118.262 220.007 127.165 224.775 133.111 230.561C133.457 231.808 133.993 232.517 133.255 233.293C126.728 240.166 112.875 248.492 104.213 252.593C103.131 253.106 102.239 252.018 101.471 251.413C99.7193 247.893 100.295 242.494 100.397 238.448C100.522 233.819 100.367 228.978 100.292 224.333Z" fill="#8CC749"/>
<path d="M285.745 151.428C304.331 158.318 318.091 188.036 314.111 207.189C312.404 209.422 313.322 208.812 310.687 209.542L300.977 209.199C301.243 186.646 300.371 176.027 280.263 162.917C282.189 158.085 283.111 155.856 285.745 151.428Z" fill="#8CC749"/>
<path d="M268.66 134.236C284.955 134.307 274.69 154.191 268.604 160.28C263.128 165.76 258.439 159.279 254.666 155.342C249.487 150.468 237.981 142.801 245.893 135.475C251.036 134.111 256.563 137.548 261.061 140.063C264.1 137.278 265.147 136.304 268.66 134.236Z" fill="#121B28"/>
<path d="M69.6383 224.302L100.292 224.333C100.367 228.978 100.522 233.819 100.396 238.448L69.714 238.574C69.552 234.025 69.6533 228.901 69.6383 224.302Z" fill="#43AECE"/>
</g>
<defs>
<clipPath id="clip0_5_43">
<rect width="315" height="408" fill="none"/>
</clipPath>
</defs>
</svg>
