<svg width="428" height="428" viewBox="0 0 428 428" fill="none" xmlns="http://www.w3.org/2000/svg">
<rect width="428" height="428" fill="#121B28"/>
<path d="M202.324 260.3C202.292 245.764 202.144 231.101 202.333 216.614C202.575 198.112 212.515 190.287 230.226 190.376C259.063 190.456 287.966 190.555 316.801 190.568C342.449 190.58 343.507 205.692 343.044 226.265C343.373 251.428 350.636 285.797 316.451 286.493C316.553 290.762 317.27 301.623 315.934 305.015C310.136 306.665 291.862 290.191 285.496 286.297C273.174 286.182 260.258 286.054 247.953 286.46C228.541 287.102 202.162 289.04 202.288 261.579C202.291 261.153 202.303 260.726 202.324 260.3Z" fill="#87C241"/>
<path d="M297.413 258.168L297.8 258.039C299.616 257.419 335.863 256.775 340.776 256.684C343.273 253.579 341.968 232.044 343.044 226.265C343.373 251.428 350.636 285.797 316.451 286.492C316.553 290.762 317.27 301.623 315.934 305.014C310.136 306.665 291.862 290.191 285.496 286.297C273.174 286.182 260.258 286.054 247.953 286.46C228.541 287.102 202.162 289.04 202.288 261.579C202.291 261.153 202.303 260.726 202.324 260.3L203.998 264.117C206.915 265.109 212.918 262.233 216.181 261.409C224.353 259.344 231.568 263.48 239.528 260.569L244.533 269.224C255.295 266.421 262.006 264.176 271.501 258.286C280.638 263.834 288.352 266.54 298.491 269.525C300.119 267.051 302.869 263.6 302.912 260.896C301.114 258.689 300.519 259.083 297.413 258.168Z" fill="#8CC749"/>
<path d="M265.255 205.768L276.243 205.436L276.531 216.09C285.202 216.419 294.747 216.297 303.485 216.362L303.504 225.68L293.647 225.808C291.129 235.872 287.008 243.915 279.694 251.277C286.191 254.679 290.074 256.713 297.413 258.168C300.519 259.083 301.114 258.689 302.912 260.896C302.869 263.6 300.119 267.051 298.491 269.525C288.352 266.54 280.638 263.834 271.501 258.286C262.006 264.176 255.295 266.421 244.533 269.224L239.528 260.569C246.249 257.148 251.864 257.563 262.985 251.013C258.263 245.975 254.372 241.088 251.892 234.559C247.453 222.871 249.085 227.122 240.129 225.188C239.134 223.225 239.512 218.75 239.549 216.273L265.202 216.128L265.255 205.768Z" fill="#FEFEFE"/>
<path d="M259.557 225.646L282.934 225.914C280.531 231.807 279.774 233.363 276.497 238.811L271.582 245.123C266.935 239.943 260.891 232.608 259.557 225.646Z" fill="#8CC749"/>
<path d="M159.303 199.26C143.949 192.477 143.614 180.44 144.254 165.333C144.782 152.866 143.165 136.586 144.665 124.564C145.071 121.186 146.02 117.896 147.478 114.823C151.357 106.7 158.74 104.434 167.402 104.154C195.226 103.255 223.195 104.314 251.031 103.822C261.625 103.635 279.724 104.947 281.95 118.853C284.89 137.216 283.029 159.061 283.213 178.056L243.476 177.959C225.297 177.854 206.739 174.997 196.891 192.075C195.851 193.878 193.401 197.859 192.033 199.161C186.132 203.036 181.017 207.961 175.533 212.373C172.732 214.626 169.678 218.064 166.264 215.783C164.893 212.269 166.118 206.217 165.272 201.295C163.782 199.499 162.157 199.788 159.303 199.26Z" fill="#1569D4"/>
<path d="M159.303 199.26C166.296 199.191 186.338 198.363 192.033 199.161C186.132 203.036 181.017 207.961 175.533 212.373C172.732 214.627 169.678 218.064 166.263 215.783C164.893 212.269 166.118 206.217 165.272 201.295C163.782 199.499 162.157 199.788 159.303 199.26Z" fill="#042B76"/>
<path d="M207.23 121.449L218.184 121.295C226.397 137.444 236.154 160.752 243.507 177.618L230.966 177.735L225.697 166.66L218.938 166.71L199.942 166.62C198.781 169.998 196.228 175.348 194.722 178.766L182.088 178.262C190.699 159.48 198.598 140.354 207.23 121.449Z" fill="#FEFEFE"/>
<path d="M212.376 135.898C214.125 137.635 220.547 153.337 221.992 156.749L213.447 156.992L203.685 156.922C206.641 149.939 209.538 142.931 212.376 135.898Z" fill="#0E69C8"/>
<path d="M110.772 207.801L125.5 207.918L125.638 234.302C125.653 238.901 125.552 244.025 125.714 248.574C125.229 296.955 159.376 288.504 194.868 289.309C194.902 294.201 194.765 299.405 194.711 304.321L166.927 303.733L166.741 347.909C185.162 361.088 175.347 383.241 157.665 381.634C152.732 381.185 148.187 378.766 145.059 374.923C136.545 364.392 142.629 354.557 151.741 347.476C151.976 332.983 152.052 318.488 151.971 303.994C141.147 301.896 132.138 298.547 124.218 290.605C108.975 275.321 110.625 258.081 110.666 238.541L110.772 207.801Z" fill="#FEFEFE"/>
<path d="M182.859 10.9233C206.312 10.4101 231.466 10.7072 255.006 10.8512C255.664 18.2473 255.178 33.9981 255.154 42.2261C245.682 42.512 235.248 42.2989 225.704 42.3004L225.804 60.1473C225.841 70.7466 225.798 81.3459 225.678 91.9445L210.484 91.9115L210.462 42.3214C201.106 42.3514 191.751 42.3282 182.397 42.2509C182.437 32.1895 182.244 20.8707 182.859 10.9233Z" fill="#FEFEFE"/>
<path d="M210.482 298.831L225.626 298.854C226.521 325.554 225.732 356.617 225.611 383.621C238.897 393.913 240.31 407.622 224.373 416.342C203.771 422.178 189.069 398.512 210.463 383.289L210.482 298.831Z" fill="#FEFEFE"/>
<path d="M157.834 58.4413C170.978 58.4166 184.122 58.5231 197.263 58.7624L197.283 73.4893C159.201 73.7331 122.406 65.4698 125.443 116.773C125.579 119.075 125.49 121.981 125.519 124.33L125.431 148.244C120.598 148.453 115.501 148.34 110.644 148.314C110.467 136.616 109.861 102.891 112.228 93.2881C114.09 85.661 117.852 78.6295 123.165 72.8493C132.681 62.6469 144.332 58.9987 157.834 58.4413Z" fill="#FEFEFE"/>
<path d="M77.7418 155.01C90.1085 154.3 98.5513 160.778 103.15 171.819C112.659 171.796 122.167 171.862 131.674 172.02L131.702 185.612L103.088 185.645L100.246 191.183C96.7318 196.037 92.225 199.762 86.3555 201.411C80.1118 203.111 73.445 202.176 67.9093 198.825C62.2918 195.48 58.2658 190.005 56.7463 183.645C53.1185 168.249 63.434 158.015 77.7418 155.01Z" fill="#FEFEFE"/>
<path d="M239.757 58.7984C270.006 58.013 311.727 52.4158 323.906 88.8057C327.926 100.816 326.973 120.238 326.322 133.234C321.88 134.442 316.597 134.048 311.988 133.872C310.773 117.025 316.438 96.2603 303.181 82.9791C299.174 79.0106 294.174 76.1922 288.705 74.8193C280.766 72.7683 249.926 73.505 239.735 73.454L239.757 58.7984Z" fill="#FEFEFE"/>
<path d="M269.219 298.835L284.377 298.792C284.127 314.546 284.296 332.133 284.635 347.833C297.925 358.299 298.885 372.014 283.201 380.831C270.054 383.77 258.576 377.373 259.341 362.909C259.721 355.719 264.184 351.676 269.243 347.416C269.482 331.436 269.206 314.891 269.219 298.835Z" fill="#FEFEFE"/>
<path d="M156.292 234.333C155.936 224.446 154.503 216.033 167.389 225.146C174.262 230.007 183.165 234.775 189.111 240.561C189.457 241.808 189.993 242.517 189.255 243.293C182.728 250.166 168.875 258.492 160.212 262.593C159.131 263.106 158.239 262.018 157.471 261.413C155.719 257.893 156.295 252.494 156.396 248.448C156.522 243.819 156.367 238.978 156.292 234.333Z" fill="#8CC749"/>
<path d="M341.745 161.428C360.331 168.318 374.091 198.036 370.111 217.189C368.404 219.422 369.322 218.812 366.687 219.542L356.977 219.199C357.243 196.646 356.371 186.027 336.263 172.917C338.189 168.085 339.111 165.856 341.745 161.428Z" fill="#8CC749"/>
<path d="M324.66 144.236C340.955 144.307 330.69 164.191 324.604 170.28C319.128 175.76 314.439 169.279 310.666 165.342C305.487 160.468 293.981 152.801 301.893 145.475C307.036 144.111 312.563 147.548 317.061 150.063C320.1 147.278 321.147 146.304 324.66 144.236Z" fill="#FEFEFE"/>
<path d="M125.638 234.302L156.292 234.333C156.367 238.978 156.522 243.819 156.396 248.448L125.714 248.574C125.552 244.025 125.653 238.901 125.638 234.302Z" fill="#43AECE"/>
</svg>
